<?xml version="1.0" encoding="UTF-8" standalone="no"?>
<!DOCTYPE svg PUBLIC "-//W3C//DTD SVG 1.1//EN"
 "http://www.w3.org/Graphics/SVG/1.1/DTD/svg11.dtd">
<!-- Generated by graphviz version 2.40.1 (20161225.0304)
 -->
<!-- Title: G Pages: 1 -->
<svg width="350pt" height="297pt"
 viewBox="0.00 0.00 350.10 297.00" xmlns="http://www.w3.org/2000/svg" xmlns:xlink="http://www.w3.org/1999/xlink">
<g id="graph0" class="graph" transform="scale(1 1) rotate(0) translate(4 293)">
<title>G</title>
<polygon fill="#ffffff" stroke="transparent" points="-4,4 -4,-293 346.097,-293 346.097,4 -4,4"/>
<!-- 1 -->
<g id="node1" class="node">
<title>1</title>
<ellipse fill="none" stroke="#000000" cx="131.1887" cy="-198" rx="18" ry="18"/>
<text text-anchor="middle" x="131.1887" y="-193.8" font-family="Times,serif" font-size="14.00" fill="#000000">1</text>
</g>
<!-- 2 -->
<g id="node2" class="node">
<title>2</title>
<ellipse fill="none" stroke="#000000" cx="131.1887" cy="-112" rx="18" ry="18"/>
<text text-anchor="middle" x="131.1887" y="-107.8" font-family="Times,serif" font-size="14.00" fill="#000000">2</text>
</g>
<!-- 1&#45;&gt;2 -->
<g id="edge1" class="edge">
<title>1&#45;&gt;2</title>
<path fill="none" stroke="#000000" d="M113.0232,-195.4887C81.4305,-190.7086 18.487,-179.2185 5.5081,-162 -20.9254,-126.9318 58.3272,-116.4167 102.9644,-113.2961"/>
<polygon fill="#000000" stroke="#000000" points="103.1948,-116.7887 112.9603,-112.6793 102.7636,-109.8019 103.1948,-116.7887"/>
<text text-anchor="middle" x="58.0291" y="-150.8" font-family="Times,serif" font-size="14.00" fill="#000000">A, x0 &lt; 1 / x0 := 0</text>
</g>
<!-- 2&#45;&gt;1 -->
<g id="edge2" class="edge">
<title>2&#45;&gt;1</title>
<path fill="none" stroke="#000000" d="M131.1887,-130.2121C131.1887,-141.6086 131.1887,-156.5329 131.1887,-169.4762"/>
<polygon fill="#000000" stroke="#000000" points="127.6888,-169.7616 131.1887,-179.7616 134.6888,-169.7616 127.6888,-169.7616"/>
<text text-anchor="middle" x="182.6428" y="-150.8" font-family="Times,serif" font-size="14.00" fill="#000000">B, x0 &lt; 1 / x0 := 0</text>
</g>
<!-- 2&#45;&gt;1 -->
<g id="edge3" class="edge">
<title>2&#45;&gt;1</title>
<path fill="none" stroke="#000000" d="M149.1319,-113.6506C184.5287,-117.6348 258.0228,-129.9325 235.1887,-162 226.1969,-174.6279 186.8186,-185.7113 159.1885,-192.1345"/>
<polygon fill="#000000" stroke="#000000" points="158.2533,-188.7572 149.2621,-194.3616 159.7858,-195.5874 158.2533,-188.7572"/>
<text text-anchor="middle" x="290.6428" y="-150.8" font-family="Times,serif" font-size="14.00" fill="#000000">C, x0 &lt; 1 / x0 := 0</text>
</g>
<!-- 3 -->
<g id="node3" class="node">
<title>3</title>
<ellipse fill="none" stroke="#000000" cx="131.1887" cy="-22" rx="18" ry="18"/>
<ellipse fill="none" stroke="#000000" cx="131.1887" cy="-22" rx="22" ry="22"/>
<text text-anchor="middle" x="131.1887" y="-17.8" font-family="Times,serif" font-size="14.00" fill="#000000">3</text>
</g>
<!-- 2&#45;&gt;3 -->
<g id="edge4" class="edge">
<title>2&#45;&gt;3</title>
<path fill="none" stroke="#000000" d="M131.1887,-93.7872C131.1887,-82.439 131.1887,-67.5173 131.1887,-54.2194"/>
<polygon fill="#000000" stroke="#000000" points="134.6888,-54.002 131.1887,-44.0021 127.6888,-54.0021 134.6888,-54.002"/>
<text text-anchor="middle" x="156.1365" y="-64.8" font-family="Times,serif" font-size="14.00" fill="#000000">$, x0 &gt; 1</text>
</g>
<!-- dummy1 -->
<g id="node4" class="node">
<title>dummy1</title>
</g>
<!-- dummy1&#45;&gt;1 -->
<g id="edge5" class="edge">
<title>dummy1&#45;&gt;1</title>
<path fill="none" stroke="#000000" d="M131.1887,-252.9551C131.1887,-244.8828 131.1887,-235.1764 131.1887,-226.1817"/>
<polygon fill="#000000" stroke="#000000" points="134.6888,-226.0903 131.1887,-216.0904 127.6888,-226.0904 134.6888,-226.0903"/>
</g>
</g>
</svg>
