<?xml version="1.0" encoding="UTF-8" standalone="no"?>
<!DOCTYPE svg PUBLIC "-//W3C//DTD SVG 1.1//EN"
 "http://www.w3.org/Graphics/SVG/1.1/DTD/svg11.dtd">
<!-- Generated by graphviz version 2.40.1 (20161225.0304)
 -->
<!-- Title: G Pages: 1 -->
<svg width="69pt" height="297pt"
 viewBox="0.00 0.00 68.59 297.00" xmlns="http://www.w3.org/2000/svg" xmlns:xlink="http://www.w3.org/1999/xlink">
<g id="graph0" class="graph" transform="scale(1 1) rotate(0) translate(4 293)">
<title>G</title>
<polygon fill="#ffffff" stroke="transparent" points="-4,4 -4,-293 64.5882,-293 64.5882,4 -4,4"/>
<!-- 1 -->
<g id="node1" class="node">
<title>1</title>
<ellipse fill="none" stroke="#000000" cx="33.5882" cy="-198" rx="18" ry="18"/>
<text text-anchor="middle" x="33.5882" y="-193.8" font-family="Times,serif" font-size="14.00" fill="#000000">1</text>
</g>
<!-- 2 -->
<g id="node2" class="node">
<title>2</title>
<ellipse fill="none" stroke="#000000" cx="33.5882" cy="-112" rx="18" ry="18"/>
<text text-anchor="middle" x="33.5882" y="-107.8" font-family="Times,serif" font-size="14.00" fill="#000000">2</text>
</g>
<!-- 1&#45;&gt;2 -->
<g id="edge1" class="edge">
<title>1&#45;&gt;2</title>
<path fill="none" stroke="#000000" d="M19.3963,-186.5829C12.5803,-180.1709 5.1171,-171.5474 1.4778,-162 -2.7852,-150.8162 3.4104,-139.5002 11.4608,-130.4688"/>
<polygon fill="#000000" stroke="#000000" points="14.1691,-132.7117 18.7965,-123.1808 9.2356,-127.7458 14.1691,-132.7117"/>
<text text-anchor="middle" x="6.6434" y="-150.8" font-family="Times,serif" font-size="14.00" fill="#000000">A</text>
</g>
<!-- 2&#45;&gt;1 -->
<g id="edge2" class="edge">
<title>2&#45;&gt;1</title>
<path fill="none" stroke="#000000" d="M33.5882,-130.2121C33.5882,-141.6086 33.5882,-156.5329 33.5882,-169.4762"/>
<polygon fill="#000000" stroke="#000000" points="30.0883,-169.7616 33.5882,-179.7616 37.0883,-169.7616 30.0883,-169.7616"/>
<text text-anchor="middle" x="38.2571" y="-150.8" font-family="Times,serif" font-size="14.00" fill="#000000">B</text>
</g>
<!-- 2&#45;&gt;1 -->
<g id="edge3" class="edge">
<title>2&#45;&gt;1</title>
<path fill="none" stroke="#000000" d="M39.8708,-129.0359C42.6957,-138.663 45.0947,-150.9481 43.5882,-162 43.194,-164.8922 42.6293,-167.8801 41.9664,-170.8405"/>
<polygon fill="#000000" stroke="#000000" points="38.5522,-170.0635 39.4385,-180.6212 45.3296,-171.8152 38.5522,-170.0635"/>
<text text-anchor="middle" x="48.2571" y="-150.8" font-family="Times,serif" font-size="14.00" fill="#000000">C</text>
</g>
<!-- 3 -->
<g id="node3" class="node">
<title>3</title>
<ellipse fill="none" stroke="#000000" cx="33.5882" cy="-22" rx="18" ry="18"/>
<ellipse fill="none" stroke="#000000" cx="33.5882" cy="-22" rx="22" ry="22"/>
<text text-anchor="middle" x="33.5882" y="-17.8" font-family="Times,serif" font-size="14.00" fill="#000000">3</text>
</g>
<!-- 2&#45;&gt;3 -->
<g id="edge4" class="edge">
<title>2&#45;&gt;3</title>
<path fill="none" stroke="#000000" d="M33.5882,-93.7872C33.5882,-82.439 33.5882,-67.5173 33.5882,-54.2194"/>
<polygon fill="#000000" stroke="#000000" points="37.0883,-54.002 33.5882,-44.0021 30.0883,-54.0021 37.0883,-54.002"/>
<text text-anchor="middle" x="37.0882" y="-64.8" font-family="Times,serif" font-size="14.00" fill="#000000">$</text>
</g>
<!-- dummy1 -->
<g id="node4" class="node">
<title>dummy1</title>
</g>
<!-- dummy1&#45;&gt;1 -->
<g id="edge5" class="edge">
<title>dummy1&#45;&gt;1</title>
<path fill="none" stroke="#000000" d="M33.5882,-252.9551C33.5882,-244.8828 33.5882,-235.1764 33.5882,-226.1817"/>
<polygon fill="#000000" stroke="#000000" points="37.0883,-226.0903 33.5882,-216.0904 30.0883,-226.0904 37.0883,-226.0903"/>
</g>
</g>
</svg>
